[url]http://www.imdb.com/title/tt1646987/[/url]

Perseus braves the treacherous underworld to rescue his father, Zeus, captured by his son, Ares, and brother Hades who unleash the ancient Titans upon the world.

Rating- 6.0


INFO-

General
Complete name                            : Wrath of the Titans 2012 BRRiP x246 Esub 200MB - cRcWoRLd.mp4
Format                                   : MPEG-4
Format profile                           : Base Media / Version 2
Codec ID                                 : mp42
File size                                : 224 MiB
Duration                                 : 1h 39mn
Overall bit rate mode                    : Variable
Overall bit rate                         : 314 Kbps
Encoded date                             : UTC 2012-06-17 19:09:27

Video
ID                                       : 1
Format                                   : AVC
Format/Info                              : Advanced Video Codec
Format profile                           : Main@L3.0
Format settings, CABAC                   : Yes
Format settings, ReFrames                : 4 frames
Codec ID                                 : avc1
Codec ID/Info                            : Advanced Video Coding
Duration                                 : 1h 39mn
Bit rate mode                            : Variable
Bit rate                                 : 246 Kbps
Width                                    : 656 pixels
Height                                   : 368 pixels
Display aspect ratio                     : 16:9
Frame rate mode                          : Variable
Frame rate                               : 23.976 fps
Minimum frame rate                       : 23.974 fps
Maximum frame rate                       : 90 000.000 fps
Color space                              : YUV
Chroma subsampling                       : 4:2:0
Bit depth                                : 8 bits
Scan type                                : Progressive
Bits/(Pixel*Frame)                       : 0.043
Stream size                              : 175 MiB (78%)
Writing library                          : x264 core 112

Audio
ID                                       : 2
Format                                   : AAC
Format/Info                              : Advanced Audio Codec
Format profile                           : LC
Codec ID                                 : 40
Duration                                 : 1h 39mn
Bit rate mode                            : Variable
Bit rate                                 : 64.0 Kbps
Maximum bit rate                         : 109 Kbps
Channel(s)                               : 2 channels
Channel positions                        : Front: L R
Sampling rate                            : 22.05 KHz
Compression mode                         : Lossy
Delay relative to video                  : -83ms
Stream size                              : 45.6 MiB (20%)

SCREENS- 
http://www.postimg.com/73000/photo-72662.jpg 
http://www.postimg.com/73000/photo-72663.jpg

TRY THE SAMPLE 1ST.
All My 200MB Rips Are Uploaded for Promotional Purposes Only! If You Like It - Buy It!
BEST For SMARTPHONES/IPAD/IPHONE/ANDROID Devices. For PC Use in VLC & MPC.
The Quality of this movies according to the rip size. plz leave your feed-back at my FB page... I am alwayes there.

NEW Rips will Come SOOOOON.
*********************************